<svg xmlns="http://www.w3.org/2000/svg" width="960" height="460" viewBox="0 0 960 460" role="img">
<title>USA exact-matching C progress over time</title>
<desc>Step chart from zero to one hundred percent, based on committed decompilation status milestones.</desc>
<rect width="100%" height="100%" fill="#0d1117"/>
<text x="76" y="28" fill="#f0f6fc" font-family="sans-serif" font-size="20" font-weight="600">USA exact-matching C progress</text>
<line x1="76" y1="390.0" x2="932" y2="390.0" stroke="#30363d"/>
<text x="64" y="394.0" text-anchor="end" fill="#8b949e" font-family="sans-serif" font-size="12">0%</text>
<line x1="76" y1="322.0" x2="932" y2="322.0" stroke="#30363d"/>
<text x="64" y="326.0" text-anchor="end" fill="#8b949e" font-family="sans-serif" font-size="12">20%</text>
<line x1="76" y1="254.0" x2="932" y2="254.0" stroke="#30363d"/>
<text x="64" y="258.0" text-anchor="end" fill="#8b949e" font-family="sans-serif" font-size="12">40%</text>
<line x1="76" y1="186.0" x2="932" y2="186.0" stroke="#30363d"/>
<text x="64" y="190.0" text-anchor="end" fill="#8b949e" font-family="sans-serif" font-size="12">60%</text>
<line x1="76" y1="118.0" x2="932" y2="118.0" stroke="#30363d"/>
<text x="64" y="122.0" text-anchor="end" fill="#8b949e" font-family="sans-serif" font-size="12">80%</text>
<line x1="76" y1="50.0" x2="932" y2="50.0" stroke="#30363d"/>
<text x="64" y="54.0" text-anchor="end" fill="#8b949e" font-family="sans-serif" font-size="12">100%</text>
<line x1="76.0" y1="390" x2="76.0" y2="396" stroke="#8b949e"/>
<text x="76.0" y="414" text-anchor="middle" fill="#8b949e" font-family="sans-serif" font-size="11">Aug 20</text>
<line x1="86.4" y1="390" x2="86.4" y2="396" stroke="#8b949e"/>
<text x="86.4" y="414" text-anchor="middle" fill="#8b949e" font-family="sans-serif" font-size="11">Aug 21</text>
<line x1="273.5" y1="390" x2="273.5" y2="396" stroke="#8b949e"/>
<text x="273.5" y="414" text-anchor="middle" fill="#8b949e" font-family="sans-serif" font-size="11">Aug 27</text>
<line x1="352.1" y1="390" x2="352.1" y2="396" stroke="#8b949e"/>
<text x="352.1" y="414" text-anchor="middle" fill="#8b949e" font-family="sans-serif" font-size="11">Aug 30</text>
<line x1="379.0" y1="390" x2="379.0" y2="396" stroke="#8b949e"/>
<text x="379.0" y="414" text-anchor="middle" fill="#8b949e" font-family="sans-serif" font-size="11">Aug 31</text>
<line x1="399.0" y1="390" x2="399.0" y2="396" stroke="#8b949e"/>
<text x="399.0" y="414" text-anchor="middle" fill="#8b949e" font-family="sans-serif" font-size="11">Sep 01</text>
<line x1="930.8" y1="390" x2="930.8" y2="396" stroke="#8b949e"/>
<text x="930.8" y="414" text-anchor="middle" fill="#8b949e" font-family="sans-serif" font-size="11">Sep 19</text>
<path d="M 76.0 286.1 H 80.2 V 285.3 H 80.6 V 284.9 H 86.4 V 284.7 H 87.0 V 284.0 H 273.5 V 271.1 H 274.5 V 270.4 H 275.9 V 269.9 H 276.5 V 269.7 H 277.2 V 269.1 H 277.6 V 268.5 H 277.8 V 268.2 H 278.2 V 267.0 H 279.0 V 266.7 H 279.2 V 266.5 H 280.0 V 266.4 H 280.3 V 266.4 H 280.7 V 266.3 H 334.7 V 266.2 H 335.5 V 266.0 H 336.1 V 266.0 H 336.9 V 266.0 H 337.2 V 265.8 H 337.5 V 265.6 H 337.8 V 265.4 H 338.3 V 265.4 H 352.1 V 265.1 H 352.8 V 264.8 H 353.1 V 264.6 H 354.9 V 264.6 H 355.1 V 264.6 H 355.2 V 264.5 H 355.7 V 264.2 H 362.4 V 264.1 H 363.1 V 264.0 H 363.4 V 263.9 H 363.6 V 263.8 H 369.3 V 263.7 H 379.0 V 263.0 H 380.4 V 262.8 H 381.9 V 262.4 H 382.8 V 262.0 H 384.2 V 261.8 H 384.7 V 261.8 H 385.3 V 261.3 H 386.0 V 261.2 H 387.2 V 260.9 H 387.9 V 260.7 H 388.5 V 260.5 H 389.0 V 259.1 H 389.2 V 258.5 H 390.0 V 258.5 H 390.3 V 258.4 H 390.5 V 258.1 H 391.5 V 257.5 H 392.8 V 257.4 H 393.4 V 257.4 H 394.1 V 257.2 H 394.7 V 257.1 H 395.3 V 257.0 H 395.7 V 256.9 H 396.5 V 256.8 H 397.1 V 256.7 H 397.4 V 256.6 H 398.3 V 256.1 H 398.7 V 255.8 H 399.0 V 255.7 H 399.5 V 255.5 H 399.7 V 255.3 H 400.1 V 255.1 H 400.5 V 255.0 H 400.8 V 254.9 H 414.9 V 254.6 H 420.4 V 254.0 H 421.2 V 253.4 H 421.8 V 252.4 H 422.5 V 252.1 H 930.8 V 252.3 H 932.0 V 251.8" fill="none" stroke="#58a6ff" stroke-width="3" stroke-linejoin="round"/>
<circle cx="932.0" cy="251.8" r="5" fill="#58a6ff"/>
<text x="924.0" y="239.8" text-anchor="end" fill="#f0f6fc" font-family="sans-serif" font-size="13" font-weight="600">40.66%</text>
<text x="932" y="442" text-anchor="end" fill="#8b949e" font-family="sans-serif" font-size="12">1,067 functions / 252,736 bytes exact</text>
</svg>
