<svg xmlns="http://www.w3.org/2000/svg" width="960" height="460" viewBox="0 0 960 460" role="img">
<title>USA exact-matching C progress over time</title>
<desc>Step chart from zero to one hundred percent, based on committed decompilation status milestones.</desc>
<rect width="100%" height="100%" fill="#0d1117"/>
<text x="76" y="28" fill="#f0f6fc" font-family="sans-serif" font-size="20" font-weight="600">USA exact-matching C progress</text>
<line x1="76" y1="390.0" x2="932" y2="390.0" stroke="#30363d"/>
<text x="64" y="394.0" text-anchor="end" fill="#8b949e" font-family="sans-serif" font-size="12">0%</text>
<line x1="76" y1="322.0" x2="932" y2="322.0" stroke="#30363d"/>
<text x="64" y="326.0" text-anchor="end" fill="#8b949e" font-family="sans-serif" font-size="12">20%</text>
<line x1="76" y1="254.0" x2="932" y2="254.0" stroke="#30363d"/>
<text x="64" y="258.0" text-anchor="end" fill="#8b949e" font-family="sans-serif" font-size="12">40%</text>
<line x1="76" y1="186.0" x2="932" y2="186.0" stroke="#30363d"/>
<text x="64" y="190.0" text-anchor="end" fill="#8b949e" font-family="sans-serif" font-size="12">60%</text>
<line x1="76" y1="118.0" x2="932" y2="118.0" stroke="#30363d"/>
<text x="64" y="122.0" text-anchor="end" fill="#8b949e" font-family="sans-serif" font-size="12">80%</text>
<line x1="76" y1="50.0" x2="932" y2="50.0" stroke="#30363d"/>
<text x="64" y="54.0" text-anchor="end" fill="#8b949e" font-family="sans-serif" font-size="12">100%</text>
<line x1="76.0" y1="390" x2="76.0" y2="396" stroke="#8b949e"/>
<text x="76.0" y="414" text-anchor="middle" fill="#8b949e" font-family="sans-serif" font-size="11">Aug 20</text>
<line x1="103.4" y1="390" x2="103.4" y2="396" stroke="#8b949e"/>
<text x="103.4" y="414" text-anchor="middle" fill="#8b949e" font-family="sans-serif" font-size="11">Aug 21</text>
<line x1="598.5" y1="390" x2="598.5" y2="396" stroke="#8b949e"/>
<text x="598.5" y="414" text-anchor="middle" fill="#8b949e" font-family="sans-serif" font-size="11">Aug 27</text>
<line x1="760.5" y1="390" x2="760.5" y2="396" stroke="#8b949e"/>
<text x="760.5" y="414" text-anchor="middle" fill="#8b949e" font-family="sans-serif" font-size="11">Aug 29</text>
<line x1="806.5" y1="390" x2="806.5" y2="396" stroke="#8b949e"/>
<text x="806.5" y="414" text-anchor="middle" fill="#8b949e" font-family="sans-serif" font-size="11">Aug 30</text>
<line x1="877.7" y1="390" x2="877.7" y2="396" stroke="#8b949e"/>
<text x="877.7" y="414" text-anchor="middle" fill="#8b949e" font-family="sans-serif" font-size="11">Aug 31</text>
<line x1="930.7" y1="390" x2="930.7" y2="396" stroke="#8b949e"/>
<text x="930.7" y="414" text-anchor="middle" fill="#8b949e" font-family="sans-serif" font-size="11">Sep 01</text>
<path d="M 76.0 286.1 H 87.1 V 285.3 H 88.2 V 284.9 H 103.4 V 284.7 H 105.1 V 284.0 H 598.5 V 271.1 H 601.3 V 270.4 H 605.1 V 269.9 H 606.5 V 269.7 H 608.5 V 269.1 H 609.4 V 268.5 H 610.1 V 268.2 H 611.0 V 267.0 H 613.3 V 266.7 H 613.8 V 266.5 H 615.7 V 266.4 H 616.7 V 266.4 H 617.8 V 266.3 H 760.5 V 266.2 H 762.8 V 266.0 H 764.4 V 266.0 H 766.5 V 266.0 H 767.2 V 265.8 H 767.9 V 265.6 H 768.7 V 265.4 H 770.1 V 265.4 H 806.5 V 265.1 H 808.4 V 264.8 H 809.2 V 264.6 H 814.1 V 264.6 H 814.4 V 264.6 H 814.8 V 264.5 H 816.1 V 264.2 H 833.8 V 264.1 H 835.8 V 264.0 H 836.6 V 263.9 H 837.1 V 263.8 H 852.2 V 263.7 H 877.7 V 263.0 H 881.5 V 262.8 H 885.4 V 262.4 H 887.9 V 262.0 H 891.6 V 261.8 H 892.9 V 261.8 H 894.4 V 261.3 H 896.2 V 261.2 H 899.6 V 260.9 H 901.5 V 260.7 H 902.9 V 260.5 H 904.3 V 259.1 H 904.8 V 258.5 H 906.8 V 258.5 H 907.7 V 258.4 H 908.3 V 258.1 H 910.8 V 257.5 H 914.4 V 257.4 H 916.0 V 257.4 H 917.7 V 257.2 H 919.3 V 257.1 H 921.0 V 257.0 H 922.0 V 256.9 H 924.2 V 256.8 H 925.6 V 256.7 H 926.5 V 256.6 H 928.9 V 256.1 H 929.9 V 255.8 H 930.7 V 255.7 H 932.0 V 255.5" fill="none" stroke="#58a6ff" stroke-width="3" stroke-linejoin="round"/>
<circle cx="932.0" cy="255.5" r="5" fill="#58a6ff"/>
<text x="924.0" y="243.5" text-anchor="end" fill="#f0f6fc" font-family="sans-serif" font-size="13" font-weight="600">39.57%</text>
<text x="932" y="442" text-anchor="end" fill="#8b949e" font-family="sans-serif" font-size="12">1,048 functions / 245,944 bytes exact</text>
</svg>
