<svg xmlns="http://www.w3.org/2000/svg" width="960" height="460" viewBox="0 0 960 460" role="img">
<title>USA exact-matching C progress over time</title>
<desc>Step chart from zero to one hundred percent, based on committed decompilation status milestones.</desc>
<rect width="100%" height="100%" fill="#0d1117"/>
<text x="76" y="28" fill="#f0f6fc" font-family="sans-serif" font-size="20" font-weight="600">USA exact-matching C progress</text>
<line x1="76" y1="390.0" x2="932" y2="390.0" stroke="#30363d"/>
<text x="64" y="394.0" text-anchor="end" fill="#8b949e" font-family="sans-serif" font-size="12">0%</text>
<line x1="76" y1="322.0" x2="932" y2="322.0" stroke="#30363d"/>
<text x="64" y="326.0" text-anchor="end" fill="#8b949e" font-family="sans-serif" font-size="12">20%</text>
<line x1="76" y1="254.0" x2="932" y2="254.0" stroke="#30363d"/>
<text x="64" y="258.0" text-anchor="end" fill="#8b949e" font-family="sans-serif" font-size="12">40%</text>
<line x1="76" y1="186.0" x2="932" y2="186.0" stroke="#30363d"/>
<text x="64" y="190.0" text-anchor="end" fill="#8b949e" font-family="sans-serif" font-size="12">60%</text>
<line x1="76" y1="118.0" x2="932" y2="118.0" stroke="#30363d"/>
<text x="64" y="122.0" text-anchor="end" fill="#8b949e" font-family="sans-serif" font-size="12">80%</text>
<line x1="76" y1="50.0" x2="932" y2="50.0" stroke="#30363d"/>
<text x="64" y="54.0" text-anchor="end" fill="#8b949e" font-family="sans-serif" font-size="12">100%</text>
<line x1="76.0" y1="390" x2="76.0" y2="396" stroke="#8b949e"/>
<text x="76.0" y="414" text-anchor="middle" fill="#8b949e" font-family="sans-serif" font-size="11">Aug 20</text>
<line x1="83.4" y1="390" x2="83.4" y2="396" stroke="#8b949e"/>
<text x="83.4" y="414" text-anchor="middle" fill="#8b949e" font-family="sans-serif" font-size="11">Aug 21</text>
<line x1="261.0" y1="390" x2="261.0" y2="396" stroke="#8b949e"/>
<text x="261.0" y="414" text-anchor="middle" fill="#8b949e" font-family="sans-serif" font-size="11">Aug 29</text>
<line x1="273.5" y1="390" x2="273.5" y2="396" stroke="#8b949e"/>
<text x="273.5" y="414" text-anchor="middle" fill="#8b949e" font-family="sans-serif" font-size="11">Aug 30</text>
<line x1="292.7" y1="390" x2="292.7" y2="396" stroke="#8b949e"/>
<text x="292.7" y="414" text-anchor="middle" fill="#8b949e" font-family="sans-serif" font-size="11">Aug 31</text>
<line x1="687.4" y1="390" x2="687.4" y2="396" stroke="#8b949e"/>
<text x="687.4" y="414" text-anchor="middle" fill="#8b949e" font-family="sans-serif" font-size="11">Sep 19</text>
<line x1="930.6" y1="390" x2="930.6" y2="396" stroke="#8b949e"/>
<text x="930.6" y="414" text-anchor="middle" fill="#8b949e" font-family="sans-serif" font-size="11">Oct 01</text>
<path d="M 76.0 286.1 H 79.0 V 285.3 H 79.3 V 284.9 H 83.4 V 284.7 H 83.9 V 284.0 H 217.2 V 271.1 H 218.0 V 270.4 H 219.0 V 269.9 H 219.4 V 269.7 H 219.9 V 269.1 H 220.2 V 268.5 H 220.4 V 268.2 H 220.6 V 267.0 H 221.2 V 266.7 H 221.4 V 266.5 H 221.9 V 266.4 H 222.1 V 266.4 H 222.4 V 266.3 H 261.0 V 266.2 H 261.6 V 266.0 H 262.1 V 266.0 H 262.6 V 266.0 H 262.8 V 265.8 H 263.0 V 265.6 H 263.2 V 265.4 H 263.6 V 265.4 H 273.5 V 265.1 H 274.0 V 264.8 H 274.2 V 264.6 H 275.5 V 264.6 H 275.6 V 264.6 H 275.7 V 264.5 H 276.0 V 264.2 H 280.8 V 264.1 H 281.4 V 264.0 H 281.6 V 263.9 H 281.7 V 263.8 H 285.8 V 263.7 H 292.7 V 263.0 H 293.7 V 262.8 H 294.8 V 262.4 H 295.5 V 262.0 H 296.5 V 261.8 H 296.8 V 261.8 H 297.2 V 261.3 H 297.7 V 261.2 H 298.6 V 260.9 H 299.1 V 260.7 H 299.5 V 260.5 H 299.9 V 259.1 H 300.0 V 258.5 H 300.6 V 258.5 H 300.8 V 258.4 H 301.0 V 258.1 H 301.6 V 257.5 H 302.6 V 257.4 H 303.0 V 257.4 H 303.5 V 257.2 H 303.9 V 257.1 H 304.4 V 257.0 H 304.7 V 256.9 H 305.3 V 256.8 H 305.6 V 256.7 H 305.9 V 256.6 H 306.5 V 256.1 H 306.8 V 255.8 H 307.0 V 255.7 H 307.4 V 255.5 H 307.6 V 255.3 H 307.8 V 255.1 H 308.1 V 255.0 H 308.3 V 254.9 H 318.4 V 254.6 H 322.3 V 254.0 H 322.9 V 253.4 H 323.3 V 252.4 H 323.9 V 252.1 H 687.4 V 252.3 H 688.3 V 251.8 H 688.9 V 251.4 H 689.2 V 250.6 H 691.7 V 250.3 H 930.6 V 245.2 H 932.0 V 240.1" fill="none" stroke="#58a6ff" stroke-width="3" stroke-linejoin="round"/>
<circle cx="932.0" cy="240.1" r="5" fill="#58a6ff"/>
<text x="924.0" y="228.1" text-anchor="end" fill="#f0f6fc" font-family="sans-serif" font-size="13" font-weight="600">44.10%</text>
<text x="932" y="442" text-anchor="end" fill="#8b949e" font-family="sans-serif" font-size="12">1,100 functions / 274,096 bytes exact</text>
</svg>
