<svg xmlns="http://www.w3.org/2000/svg" width="960" height="460" viewBox="0 0 960 460" role="img">
<title>USA exact-matching C progress over time</title>
<desc>Step chart from zero to one hundred percent, based on committed decompilation status milestones.</desc>
<rect width="100%" height="100%" fill="#0d1117"/>
<text x="76" y="28" fill="#f0f6fc" font-family="sans-serif" font-size="20" font-weight="600">USA exact-matching C progress</text>
<line x1="76" y1="390.0" x2="932" y2="390.0" stroke="#30363d"/>
<text x="64" y="394.0" text-anchor="end" fill="#8b949e" font-family="sans-serif" font-size="12">0%</text>
<line x1="76" y1="322.0" x2="932" y2="322.0" stroke="#30363d"/>
<text x="64" y="326.0" text-anchor="end" fill="#8b949e" font-family="sans-serif" font-size="12">20%</text>
<line x1="76" y1="254.0" x2="932" y2="254.0" stroke="#30363d"/>
<text x="64" y="258.0" text-anchor="end" fill="#8b949e" font-family="sans-serif" font-size="12">40%</text>
<line x1="76" y1="186.0" x2="932" y2="186.0" stroke="#30363d"/>
<text x="64" y="190.0" text-anchor="end" fill="#8b949e" font-family="sans-serif" font-size="12">60%</text>
<line x1="76" y1="118.0" x2="932" y2="118.0" stroke="#30363d"/>
<text x="64" y="122.0" text-anchor="end" fill="#8b949e" font-family="sans-serif" font-size="12">80%</text>
<line x1="76" y1="50.0" x2="932" y2="50.0" stroke="#30363d"/>
<text x="64" y="54.0" text-anchor="end" fill="#8b949e" font-family="sans-serif" font-size="12">100%</text>
<line x1="76.0" y1="390" x2="76.0" y2="396" stroke="#8b949e"/>
<text x="76.0" y="414" text-anchor="middle" fill="#8b949e" font-family="sans-serif" font-size="11">Aug 20</text>
<line x1="103.9" y1="390" x2="103.9" y2="396" stroke="#8b949e"/>
<text x="103.9" y="414" text-anchor="middle" fill="#8b949e" font-family="sans-serif" font-size="11">Aug 21</text>
<line x1="608.5" y1="390" x2="608.5" y2="396" stroke="#8b949e"/>
<text x="608.5" y="414" text-anchor="middle" fill="#8b949e" font-family="sans-serif" font-size="11">Aug 27</text>
<line x1="773.5" y1="390" x2="773.5" y2="396" stroke="#8b949e"/>
<text x="773.5" y="414" text-anchor="middle" fill="#8b949e" font-family="sans-serif" font-size="11">Aug 29</text>
<line x1="820.5" y1="390" x2="820.5" y2="396" stroke="#8b949e"/>
<text x="820.5" y="414" text-anchor="middle" fill="#8b949e" font-family="sans-serif" font-size="11">Aug 30</text>
<line x1="893.0" y1="390" x2="893.0" y2="396" stroke="#8b949e"/>
<text x="893.0" y="414" text-anchor="middle" fill="#8b949e" font-family="sans-serif" font-size="11">Aug 31</text>
<path d="M 76.0 286.1 H 87.4 V 285.3 H 88.4 V 284.9 H 103.9 V 284.7 H 105.7 V 284.0 H 608.5 V 271.1 H 611.3 V 270.4 H 615.2 V 269.9 H 616.7 V 269.7 H 618.7 V 269.1 H 619.6 V 268.5 H 620.3 V 268.2 H 621.2 V 267.0 H 623.5 V 266.7 H 624.1 V 266.5 H 626.0 V 266.4 H 627.0 V 266.4 H 628.1 V 266.3 H 773.5 V 266.2 H 775.9 V 266.0 H 777.5 V 266.0 H 779.6 V 266.0 H 780.4 V 265.8 H 781.1 V 265.6 H 782.0 V 265.4 H 783.3 V 265.4 H 820.5 V 265.1 H 822.4 V 264.8 H 823.2 V 264.6 H 828.2 V 264.6 H 828.5 V 264.6 H 828.9 V 264.5 H 830.2 V 264.2 H 848.3 V 264.1 H 850.3 V 264.0 H 851.1 V 263.9 H 851.7 V 263.8 H 867.0 V 263.7 H 893.0 V 263.0 H 896.9 V 262.8 H 900.9 V 262.4 H 903.4 V 262.0 H 907.2 V 261.8 H 908.5 V 261.8 H 910.0 V 261.3 H 911.9 V 261.2 H 915.3 V 260.9 H 917.2 V 260.7 H 918.7 V 260.5 H 920.1 V 259.1 H 920.6 V 258.5 H 922.7 V 258.5 H 923.6 V 258.4 H 924.2 V 258.1 H 926.7 V 257.5 H 930.4 V 257.4 H 932.0 V 257.4" fill="none" stroke="#58a6ff" stroke-width="3" stroke-linejoin="round"/>
<circle cx="932.0" cy="257.4" r="5" fill="#58a6ff"/>
<text x="924.0" y="245.4" text-anchor="end" fill="#f0f6fc" font-family="sans-serif" font-size="13" font-weight="600">39.00%</text>
<text x="932" y="442" text-anchor="end" fill="#8b949e" font-family="sans-serif" font-size="12">1,036 functions / 242,404 bytes exact</text>
</svg>
